<?xml version="1.0" standalone="no"?>
<!DOCTYPE svg PUBLIC "-//W3C//DTD SVG 20010904//EN"
 "http://www.w3.org/TR/2001/REC-SVG-20010904/DTD/svg10.dtd">
<svg version="1.0" xmlns="http://www.w3.org/2000/svg"
 width="1000.000000pt" height="1000.000000pt" viewBox="0 0 1000.000000 1000.000000"
 preserveAspectRatio="xMidYMid meet">
<metadata>
Created by potrace 1.14, written by Peter Selinger 2001-2017
</metadata>
<g transform="translate(0.000000,1000.000000) scale(0.100000,-0.100000)"
fill="#000000" stroke="none">
<path d="M7578 9395 c-1 -1 -43 -6 -93 -9 -49 -3 -117 -9 -150 -12 -33 -4 -72
-7 -87 -8 -16 -1 -28 -4 -28 -7 0 -3 -10 -5 -22 -4 -12 1 -43 -2 -68 -7 -74
-14 -93 -17 -139 -23 -23 -3 -46 -7 -50 -9 -3 -2 -23 -7 -43 -10 -21 -3 -59
-11 -85 -17 -27 -6 -59 -13 -73 -15 -14 -3 -43 -10 -65 -16 -22 -6 -48 -13
-58 -15 -62 -11 -416 -120 -482 -148 -16 -7 -61 -25 -100 -40 -38 -16 -117
-50 -174 -77 -57 -26 -105 -48 -108 -48 -2 0 -25 -14 -51 -32 -26 -18 -48 -30
-48 -28 -2 7 -161 -98 -219 -144 -110 -88 -207 -201 -253 -296 -34 -69 -45
-170 -27 -245 4 -16 8 -34 9 -40 1 -5 14 -35 29 -66 25 -53 140 -189 160 -189
5 0 21 -9 36 -19 30 -22 128 -56 181 -65 19 -3 67 -6 105 -7 39 -1 81 -6 94
-11 28 -10 26 -23 -20 -123 -18 -39 -34 -75 -35 -81 -1 -7 -16 -50 -33 -95
-40 -111 -85 -258 -122 -401 -28 -111 -33 -128 -44 -180 -2 -13 -14 -63 -25
-113 -11 -49 -22 -101 -24 -115 -3 -14 -10 -47 -15 -75 -6 -27 -13 -68 -16
-90 -3 -22 -7 -51 -10 -65 -10 -49 -16 -85 -20 -120 -2 -19 -7 -48 -11 -65 -6
-32 -10 -58 -18 -140 -2 -27 -7 -63 -10 -80 -6 -34 -17 -143 -21 -195 -5 -90
-21 -235 -25 -235 -1 0 -3 -15 -6 -33 -2 -18 -11 -49 -20 -70 -8 -20 -17 -45
-19 -55 -12 -57 -170 -349 -217 -401 -10 -11 -18 -24 -18 -29 0 -5 -10 -22
-22 -37 -13 -15 -30 -37 -38 -50 -19 -28 -82 -112 -95 -126 -5 -6 -26 -30 -45
-54 -114 -142 -308 -336 -430 -430 -25 -19 -47 -37 -50 -41 -11 -13 -129 -77
-163 -88 -60 -20 -97 11 -92 79 5 85 18 178 39 285 16 79 20 101 21 118 2 9 3
18 5 20 2 3 11 45 24 112 1 6 5 16 9 23 5 6 6 12 3 12 -2 0 0 15 5 33 6 17 13
43 16 57 8 37 9 41 22 90 8 25 14 50 16 55 1 6 5 17 8 25 3 8 9 29 13 45 4 17
8 35 10 40 7 31 90 282 115 351 16 44 29 83 29 87 0 3 4 16 9 29 5 13 8 26 7
29 0 3 5 13 13 22 7 10 10 17 7 17 -4 0 -1 10 6 23 7 12 13 24 13 27 2 11 28
86 34 95 5 9 16 38 55 145 9 25 23 59 30 75 8 17 26 62 41 100 15 39 33 84 40
100 13 30 27 65 30 75 1 3 8 21 17 40 8 19 27 64 42 100 15 36 36 84 47 107
10 24 19 45 19 48 0 4 21 53 60 140 84 188 206 481 242 585 39 114 49 173 35
220 -2 8 -7 29 -12 45 -4 17 -10 35 -14 40 -3 6 -6 12 -7 15 -2 16 -39 80 -46
80 -4 0 -8 6 -8 13 0 13 -115 137 -155 167 -30 23 -97 64 -125 78 -78 38 -224
80 -301 87 -15 1 -31 5 -37 9 -6 3 -13 2 -17 -4 -4 -6 -13 -7 -23 -2 -23 11
-289 3 -402 -13 -63 -8 -164 -18 -202 -19 -21 -1 -38 -3 -38 -6 0 -3 -8 -6
-17 -7 -39 -2 -140 -13 -165 -18 -54 -10 -83 -15 -128 -21 -25 -3 -52 -7 -61
-10 -9 -3 -34 -7 -55 -10 -22 -2 -46 -6 -54 -9 -15 -5 -84 -16 -107 -17 -7 -1
-13 -4 -13 -7 0 -3 -12 -6 -27 -7 -30 0 -79 -8 -146 -24 -147 -33 -235 -53
-257 -56 -14 -3 -33 -7 -42 -10 -9 -3 -25 -6 -35 -8 -11 -2 -50 -12 -87 -21
-37 -9 -75 -18 -84 -20 -9 -2 -17 -4 -17 -5 0 -2 -19 -7 -56 -14 -15 -4 -56
-15 -90 -25 -61 -18 -109 -31 -136 -37 -72 -15 -628 -200 -673 -224 -12 -6
-30 -13 -40 -15 -40 -8 -282 -115 -540 -239 -8 -4 -37 -20 -65 -36 -27 -16
-69 -40 -92 -52 -24 -12 -43 -26 -43 -30 0 -4 -4 -8 -10 -8 -17 0 -200 -124
-300 -205 -71 -57 -210 -200 -265 -274 -125 -166 -185 -325 -190 -506 -3 -92
1 -123 21 -191 41 -142 134 -270 203 -279 48 -6 64 5 171 115 52 54 124 121
160 149 36 27 73 57 83 65 9 9 17 14 17 12 0 -4 87 50 115 72 6 4 39 23 75 41
36 19 68 38 71 44 3 5 9 8 13 8 3 -1 46 17 94 41 112 53 194 88 210 88 6 0 12
4 12 9 0 5 15 13 32 16 18 4 38 11 43 15 6 4 30 15 55 23 25 9 104 36 175 61
72 25 138 46 148 46 9 0 17 5 17 12 0 6 3 9 6 6 3 -4 20 -2 37 3 38 12 49 15
102 29 22 6 47 13 55 15 80 25 387 95 480 110 19 3 42 8 50 10 8 2 35 6 60 9
25 3 56 8 70 11 30 6 81 13 138 20 23 3 61 7 85 10 180 23 487 39 549 29 57
-9 58 -36 3 -206 -26 -78 -49 -150 -52 -158 -8 -19 -10 -27 -22 -70 -5 -19
-19 -66 -31 -105 -41 -136 -146 -521 -156 -575 -2 -14 -7 -32 -11 -40 -3 -8
-7 -23 -8 -32 -2 -10 -3 -19 -5 -20 -1 -2 -3 -10 -5 -18 -2 -12 -46 -205 -71
-315 -3 -11 -9 -44 -15 -74 -6 -29 -15 -65 -20 -78 -6 -17 -6 -22 2 -17 8 5 8
1 0 -13 -5 -11 -13 -35 -16 -54 -11 -68 -18 -104 -22 -124 -8 -38 -25 -130
-28 -155 -2 -14 -6 -41 -9 -60 -3 -19 -7 -46 -10 -60 -3 -14 -10 -61 -16 -106
-6 -44 -12 -91 -15 -103 -4 -20 -13 -96 -21 -171 -1 -14 -3 -25 -4 -25 0 0 -3
-20 -4 -45 -2 -25 -7 -74 -11 -109 -4 -35 -8 -81 -10 -101 -6 -76 -17 -87
-105 -106 -43 -9 -38 -9 -75 -17 -16 -4 -39 -9 -50 -12 -11 -2 -47 -12 -80
-21 -33 -9 -67 -17 -75 -19 -50 -10 -463 -146 -477 -158 -7 -5 -13 -7 -13 -4
0 5 -92 -29 -157 -59 -17 -8 -34 -14 -38 -14 -7 0 -25 -8 -120 -50 -70 -31
-98 -43 -113 -46 -8 -1 -21 -9 -30 -17 -10 -8 -34 -20 -54 -27 -21 -6 -38 -16
-38 -21 0 -5 -3 -8 -7 -7 -8 2 -144 -63 -153 -73 -3 -3 -36 -23 -75 -44 -135
-74 -319 -201 -430 -295 -46 -39 -181 -177 -219 -223 -40 -49 -106 -146 -106
-156 0 -3 -10 -22 -23 -41 -13 -19 -31 -57 -41 -85 -10 -27 -20 -57 -23 -65
-14 -35 -24 -72 -27 -100 -1 -14 -5 -30 -8 -36 -6 -10 -2 -271 5 -309 37 -204
118 -369 243 -489 79 -76 91 -86 104 -86 5 0 10 -4 10 -9 0 -5 14 -14 30 -21
17 -7 30 -16 30 -21 0 -5 4 -9 9 -9 5 0 40 -14 77 -32 38 -18 74 -34 79 -35 6
-1 47 -14 92 -27 45 -14 99 -27 120 -30 21 -3 49 -7 63 -10 55 -11 283 -22
320 -16 3 0 48 2 100 5 52 2 120 7 150 10 30 4 69 9 85 10 17 2 30 4 30 5 0 1
16 3 35 5 19 2 46 6 60 9 59 13 136 29 150 31 8 1 49 12 90 25 41 13 82 25 91
27 55 10 450 181 469 202 3 3 21 15 40 25 39 22 202 127 210 135 3 4 22 17 42
31 21 14 38 28 38 33 0 4 5 7 10 7 5 0 18 8 28 17 10 10 46 42 79 70 86 75
177 166 258 259 105 120 117 136 205 259 28 39 57 79 65 90 8 10 15 25 15 31
0 7 4 14 8 16 33 14 275 500 297 598 2 8 13 39 24 67 10 29 17 53 15 53 -3 0
0 8 5 18 6 11 13 32 16 48 8 38 13 58 15 62 3 3 5 12 14 67 10 64 31 103 61
117 14 6 25 15 25 20 0 4 8 8 17 8 26 0 168 76 288 154 120 79 290 211 374
290 99 94 216 213 251 256 19 23 47 56 63 72 15 17 27 33 27 37 0 3 10 17 23
31 12 14 37 47 54 75 36 56 39 54 49 -55 22 -245 70 -453 138 -603 30 -65 92
-156 123 -180 13 -10 29 -24 36 -31 39 -38 131 -79 209 -93 52 -9 309 -9 358
-1 87 16 167 48 180 73 7 14 17 25 21 25 9 0 23 75 22 120 -2 40 -9 177 -19
335 -8 130 -11 376 -6 389 3 4 6 36 7 70 4 83 18 236 30 324 12 92 17 129 20
162 2 19 4 35 5 35 1 0 3 15 5 34 3 29 9 66 31 206 3 17 7 46 10 65 2 19 9 58
14 85 6 28 12 64 14 80 9 67 40 211 48 221 24 32 214 -15 303 -75 25 -17 48
-31 50 -31 9 0 80 -78 119 -130 22 -30 44 -56 49 -58 4 -2 7 -8 7 -14 0 -5 14
-29 30 -53 17 -24 30 -48 30 -53 0 -6 4 -12 8 -14 25 -9 182 -324 379 -758 73
-161 189 -384 234 -453 46 -71 151 -187 168 -187 5 0 14 -7 22 -16 24 -29 213
-109 245 -103 5 1 11 1 14 -1 65 -25 409 -16 550 14 14 3 39 8 55 12 17 3 49
12 73 20 24 8 47 12 52 9 5 -3 10 -2 12 2 1 5 28 16 58 27 169 57 370 177 536
319 118 100 333 341 334 374 0 6 3 13 8 15 11 5 58 98 77 153 23 71 29 153 16
231 -14 80 -32 116 -84 166 -35 35 -44 40 -63 37 -4 0 -10 4 -13 10 -6 10 -55
15 -108 12 -31 -2 -98 -70 -183 -186 -167 -229 -293 -313 -470 -311 -68 1 -95
6 -133 25 -116 57 -204 189 -347 521 -169 392 -321 580 -562 694 -42 20 -79
44 -82 53 -9 22 21 42 64 43 41 2 46 3 127 23 34 9 79 24 100 34 21 9 43 17
48 18 39 6 259 116 391 196 116 69 301 209 389 293 38 36 73 66 77 66 4 0 8 3
8 8 0 4 26 34 56 67 212 227 356 491 442 810 11 39 18 78 16 88 -1 9 1 17 4
17 4 0 8 15 8 33 1 17 5 59 9 92 9 76 10 268 1 320 -4 22 -9 54 -11 70 -7 43
-11 64 -26 115 -7 25 -13 48 -15 53 -1 4 -3 9 -4 12 -1 3 -3 9 -4 14 0 5 -4
13 -8 17 -5 4 -8 14 -8 22 0 20 -102 222 -112 222 -4 0 -8 4 -8 10 0 11 -60
98 -105 150 -45 53 -186 192 -224 220 -19 14 -40 31 -47 38 -7 6 -17 12 -22
12 -5 0 -17 9 -27 20 -10 11 -24 20 -31 20 -7 0 -14 4 -16 8 -4 9 -122 82
-134 82 -4 0 -15 7 -25 16 -9 8 -23 17 -31 18 -7 1 -22 7 -34 13 -68 38 -320
126 -425 149 -77 17 -134 26 -294 50 -36 5 -492 14 -497 9z m177 -1199 c322
-40 484 -184 541 -481 20 -107 12 -306 -17 -425 -27 -107 -103 -283 -131 -301
-5 -3 -9 -9 -9 -13 2 -13 -81 -118 -147 -183 -76 -77 -129 -121 -211 -175 -31
-21 -60 -41 -66 -46 -20 -16 -263 -131 -289 -137 -6 -1 -18 -5 -26 -8 -69 -27
-226 -55 -298 -51 -31 1 -122 5 -200 8 -165 7 -175 11 -167 76 3 23 8 47 12
54 4 6 9 16 10 21 7 31 11 43 22 70 6 17 19 50 28 75 9 25 19 50 23 55 4 6 15
33 25 60 10 28 26 68 35 90 81 187 170 409 170 423 0 7 4 12 8 12 5 0 15 23
22 50 7 28 18 50 22 50 5 0 7 4 4 8 -2 4 3 26 13 47 10 22 30 78 45 125 15 47
30 92 33 100 17 44 42 197 34 205 -3 3 -6 16 -7 28 -4 68 -34 135 -75 164 -39
29 -27 70 23 78 38 6 139 16 208 21 35 3 66 6 68 9 5 5 242 -2 297 -9z m-5114
-5116 c10 -6 19 -18 19 -26 0 -21 -60 -196 -72 -211 -6 -7 -8 -13 -5 -13 6 0
-72 -172 -82 -180 -3 -3 -16 -25 -28 -50 -29 -60 -56 -104 -65 -108 -5 -2 -8
-9 -8 -15 0 -7 -11 -24 -25 -39 -14 -15 -25 -30 -25 -34 0 -13 -113 -148 -180
-215 -56 -57 -99 -94 -201 -171 -13 -10 -29 -18 -35 -18 -7 0 -14 -4 -16 -9
-1 -5 -10 -11 -18 -13 -8 -2 -17 -6 -20 -9 -7 -9 -118 -59 -155 -71 -112 -35
-200 -50 -310 -52 -244 -6 -404 109 -409 292 -1 17 -5 32 -9 32 -5 0 -6 4 -3
8 3 5 7 19 10 33 11 55 15 66 32 102 10 20 21 37 26 37 4 0 8 6 8 13 0 12 91
107 140 147 14 11 30 23 35 28 22 18 123 81 165 103 25 13 47 27 50 30 6 6
197 99 205 99 2 0 28 11 57 24 130 58 377 147 543 195 61 18 137 41 170 51 33
11 71 21 85 24 14 2 25 5 25 6 0 1 11 4 24 6 14 2 27 7 30 9 7 8 21 6 42 -5z"/>
<path d="M9446 3262 c-2 -1 -39 -5 -82 -8 -44 -2 -97 -6 -119 -8 -22 -2 -71
-7 -110 -11 -38 -3 -81 -8 -95 -10 -34 -5 -161 -18 -182 -19 -10 0 -18 -3 -18
-6 0 -3 -17 -5 -37 -4 -21 0 -42 -2 -47 -4 -6 -3 -26 -6 -45 -7 -37 -2 -137
-17 -201 -30 -14 -3 -43 -7 -65 -10 -22 -2 -49 -6 -60 -9 -11 -2 -40 -7 -65
-10 -46 -6 -51 -7 -185 -31 -44 -8 -93 -17 -109 -19 -16 -3 -52 -10 -80 -15
-28 -6 -62 -13 -76 -15 -14 -3 -50 -10 -80 -16 -30 -6 -66 -13 -80 -15 -14 -3
-34 -7 -45 -9 -94 -21 -170 -37 -197 -41 -18 -3 -41 -8 -50 -11 -9 -3 -25 -6
-35 -8 -23 -5 -240 -55 -273 -63 -14 -4 -29 -8 -35 -8 -5 -1 -28 -7 -50 -13
-22 -6 -51 -13 -65 -16 -14 -3 -49 -12 -77 -20 -29 -8 -53 -12 -53 -9 0 3 -6
1 -12 -5 -7 -5 -29 -13 -49 -16 -20 -3 -47 -10 -60 -15 -13 -5 -27 -9 -31 -10
-5 0 -9 -1 -10 -2 -4 -1 -31 -8 -48 -12 -8 -2 -35 -9 -60 -16 -25 -7 -52 -15
-60 -16 -23 -5 -150 -43 -305 -90 -77 -24 -151 -46 -165 -50 -14 -3 -34 -10
-45 -15 -11 -5 -65 -23 -120 -40 -55 -17 -109 -35 -120 -40 -11 -5 -38 -14
-60 -20 -22 -6 -49 -15 -60 -20 -22 -9 -184 -69 -200 -74 -35 -10 -332 -126
-402 -157 -23 -11 -44 -19 -47 -19 -3 0 -35 -13 -70 -30 -36 -16 -93 -41 -126
-55 -34 -14 -101 -44 -148 -67 -48 -22 -96 -44 -107 -49 -11 -5 -27 -13 -35
-18 -8 -6 -58 -31 -110 -57 -109 -53 -244 -125 -311 -165 -25 -14 -56 -30 -67
-34 -12 -3 -22 -10 -22 -15 0 -4 -8 -10 -18 -14 -16 -5 -50 -24 -102 -57 -155
-99 -287 -185 -295 -191 -5 -4 -50 -37 -100 -73 -49 -35 -94 -68 -100 -72 -5
-5 -30 -24 -55 -43 -24 -19 -53 -43 -65 -54 -11 -10 -35 -30 -54 -45 -86 -65
-504 -469 -523 -505 -19 -36 11 -48 130 -53 127 -6 164 3 216 51 19 19 47 43
62 55 15 12 24 21 20 21 -3 0 13 17 36 38 24 20 48 42 54 47 6 6 28 24 49 40
21 17 46 37 55 46 14 13 163 121 220 159 76 50 92 60 100 60 6 0 10 5 10 10 0
6 4 10 10 10 5 0 50 25 100 55 49 30 90 51 90 47 0 -4 4 -2 8 4 9 14 323 167
467 228 61 26 118 51 127 57 10 5 23 9 29 9 6 0 25 7 42 15 60 27 137 55 137
49 0 -4 6 -2 13 4 6 5 68 29 137 52 69 23 132 45 140 48 8 3 20 7 25 7 6 1 17
5 25 8 21 8 114 38 131 41 8 2 21 6 29 9 15 6 152 45 180 51 8 2 35 9 60 16
25 7 52 14 60 16 8 2 40 10 70 18 30 8 66 17 80 19 14 3 45 10 70 17 25 7 56
14 70 16 14 3 33 7 42 10 27 8 62 15 89 18 14 2 30 6 36 9 6 4 28 9 49 12 21
3 78 13 125 23 47 10 94 17 103 16 9 -1 16 1 16 5 0 4 6 8 13 8 6 0 29 3 50 7
20 3 54 8 75 11 20 3 60 10 87 15 28 6 66 12 85 14 19 3 52 7 73 10 153 23
242 35 307 41 36 4 76 9 90 11 14 2 57 7 95 10 39 3 86 8 105 10 19 2 64 6
100 8 36 2 117 8 180 12 142 11 907 11 1125 0 88 -5 194 -10 235 -11 41 -2 75
-4 75 -5 0 -1 49 -3 108 -6 141 -5 140 -6 238 123 64 83 64 84 134 193 30 47
59 90 65 97 5 7 10 15 10 18 0 3 23 42 50 86 28 44 50 83 50 85 0 2 11 21 23
42 13 20 39 64 57 97 18 33 44 78 57 100 13 22 46 86 75 143 68 135 70 133
-140 130 -85 -2 -155 -4 -156 -6z"/>
</g>
</svg>
