<svg width="684" height="162" viewBox="0 0 684 162" fill="none" xmlns="http://www.w3.org/2000/svg">
<g clip-path="url(#clip0_7220_15466)">
<path d="M162.446 83.4799C162.714 83.2465 163.022 83.0623 163.355 82.9363C163.691 82.7915 164.048 82.7021 164.413 82.6718C166.107 82.4098 167.826 82.9549 169.048 84.1411C169.975 85.3774 170.266 86.968 169.838 88.4461C168.889 92.1493 167.169 95.617 164.786 98.6281C161.969 102.33 158.609 105.598 154.816 108.325C150.621 111.367 146.03 113.838 141.166 115.672C136.099 117.625 130.733 118.723 125.296 118.919C121.632 119.096 117.963 118.714 114.417 117.787C111.24 116.975 108.24 115.595 105.565 113.718C103.017 111.923 100.842 109.664 99.1576 107.062C97.4256 104.386 96.2786 101.384 95.7897 98.2461C94.9257 93.7976 94.835 89.2367 95.5215 84.7582C96.1658 80.3463 97.6849 76.1026 99.9921 72.2694C103.081 67.2028 107.498 63.0509 112.778 60.2507C118.49 57.0575 125.753 55.2894 134.565 54.9466C140.913 54.6919 145.572 55.7302 148.543 58.0615C151.56 60.4873 153.487 63.9867 153.907 67.8028C154.364 71.018 153.78 74.2931 152.238 77.162C150.561 80.3295 148.255 83.1325 145.458 85.4047C142.314 87.988 138.798 90.0973 135.027 91.6638C130.82 93.4214 126.395 94.6219 121.868 95.2341C122.509 97.4322 123.758 99.4112 125.474 100.95C127.397 102.458 129.798 103.249 132.255 103.183C138.306 102.841 144.107 100.688 148.885 97.0119C154.032 93.1561 158.598 88.6001 162.446 83.4799ZM120.944 84.6553C122.961 84.4977 124.921 83.9219 126.696 82.9657C128.384 82.075 129.898 80.896 131.167 79.4835C132.331 78.183 133.254 76.691 133.894 75.0757C134.485 73.7506 134.73 72.3013 134.609 70.8589C134.483 70.0792 134.242 69.3218 133.894 68.6109C133.487 67.9439 132.705 67.5934 131.927 67.7293C130.588 67.8286 129.315 68.3429 128.291 69.1986C126.957 70.2283 125.796 71.4578 124.849 72.8424C123.72 74.4843 122.832 76.2748 122.211 78.1612C121.49 80.2586 121.063 82.4437 120.944 84.6553Z" fill="#181818"/>
<path d="M212.369 51.2862C212.504 52.6655 212.3 54.0566 211.773 55.3414C211.224 56.7865 210.476 58.1509 209.552 59.3966C208.629 60.6367 207.536 61.7444 206.304 62.6878C205.266 63.5346 204.014 64.088 202.683 64.2893C201.209 64.563 199.703 64.6224 198.212 64.4656C196.722 64.3333 194.978 64.157 193.101 63.9366C191.909 66.9833 190.875 70.0874 190.001 73.2372C189.137 76.352 188.392 79.32 187.796 82.141C187.199 84.962 186.708 87.5626 186.305 89.9722C185.903 92.3818 185.769 94.38 185.709 95.9522C185.62 98.0092 186.112 99.3021 187.199 99.8458C188.394 100.416 189.72 100.669 191.044 100.58C193.027 100.336 194.935 99.6854 196.647 98.6703C199.404 97.1633 201.916 95.2565 204.098 93.0136C204.875 92.3515 205.602 91.6346 206.274 90.8685C207.094 89.9575 210.745 85.5791 211.639 84.6681C212.533 83.7572 213.338 82.9638 214.112 82.3026C214.574 81.7924 215.182 81.4336 215.856 81.2741C216.889 81.3834 217.878 81.7472 218.732 82.332C219.761 82.978 220.415 84.0702 220.49 85.2705C220.888 88.2091 219.76 91.3142 217.108 94.5857C213.267 99.2746 208.908 103.527 204.113 107.266C199.934 110.139 195.434 112.53 190.701 114.392C186.541 116.151 182.106 117.194 177.588 117.477C174.483 117.54 171.438 116.635 168.885 114.891C166.046 113.099 163.778 110.553 162.343 107.545C161.881 106.461 161.497 105.347 161.196 104.21C160.89 102.965 160.77 101.683 160.838 100.404C160.838 98.7389 160.927 96.5791 161.106 93.9246C161.285 91.2701 161.588 88.3021 162.015 85.0208C162.403 81.7296 162.899 78.2082 163.505 74.4567C164.161 70.71 164.996 66.9193 165.934 63.0551C163.867 62.5509 161.909 61.685 160.152 60.4985C158.636 59.4926 157.645 57.8811 157.44 56.0907C157.193 54.6945 157.28 53.2606 157.694 51.9033C158.072 50.8847 158.793 50.0242 159.735 49.4643C160.901 48.8212 162.181 48.4024 163.505 48.2301C164.996 47.9656 166.828 47.7011 168.825 47.422C169.126 47.4168 169.426 47.3823 169.719 47.3191C170.069 47.2533 170.422 47.214 170.778 47.2016C171.875 43.9189 173.174 40.705 174.667 37.5778C176.002 34.7686 177.582 32.0794 179.391 29.5409C180.857 27.4331 182.665 25.5768 184.741 24.0458C186.461 22.7513 188.54 22.0031 190.701 21.9007C193.471 21.7962 196.229 22.298 198.778 23.3699C201.335 24.3043 203.691 25.7049 205.723 27.4986C207.563 28.9812 208.801 31.0673 209.21 33.3757C209.393 34.3038 209.256 35.2655 208.822 36.1086C208.315 36.9544 207.716 37.7428 207.034 38.4594C206.259 39.2675 205.35 40.2372 204.337 41.3979C203.139 42.7543 202.09 44.2318 201.207 45.8058L208.33 45.5266C209.701 45.4513 210.924 46.3656 211.221 47.6865C211.709 48.8512 212.093 50.0556 212.369 51.2862Z" fill="#181818"/>
<path d="M261.753 1.68211C268.368 1.25374 275.001 2.21012 281.215 4.48842C286.248 6.37478 290.863 9.20373 294.805 12.8192C298.149 15.8967 300.826 19.6103 302.674 23.7359C304.213 26.9974 305.041 30.5415 305.103 34.1384C305.002 38.2051 303.946 42.1935 302.018 45.7898C299.973 49.6537 297.334 53.1824 294.194 56.251C290.852 59.5556 287.114 62.4468 283.063 64.861C278.877 67.3655 274.431 69.4195 269.8 70.9878C272.553 72.9445 274.999 75.2912 277.057 77.9522C279.461 80.9495 281.721 83.9174 283.838 86.856C285.954 89.7946 287.876 92.3364 289.605 94.4815C291.343 96.6169 292.863 97.6601 294.165 97.6111C295.43 97.4057 296.552 96.693 297.264 95.6423C298.352 94.3787 299.574 92.9829 300.945 91.4548C302.341 89.9149 303.872 88.499 305.52 87.2233C307.227 85.9155 309.319 85.1886 311.481 85.1516C312.27 85.0193 313.079 85.2281 313.701 85.7247C314.114 86.2004 314.409 86.7635 314.565 87.3702C314.801 90.1338 314.249 92.9072 312.971 95.3778C311.406 98.7811 309.264 101.896 306.638 104.59C303.598 107.708 300.078 110.331 296.206 112.363C291.964 114.625 287.243 115.873 282.422 116.006C276.819 116.232 272.646 115.419 269.904 113.567C266.821 111.278 264.472 108.161 263.139 104.59C261.246 100.843 259.577 97.3466 258.132 94.0701C256.796 91.058 255.304 88.1155 253.661 85.2545C252.267 82.7802 250.504 80.5267 248.431 78.5693C246.303 76.6719 243.691 75.3817 240.875 74.8373C238.596 74.5845 236.459 73.6162 234.78 72.0751C233.234 70.7182 232.017 69.0361 231.219 67.153C230.557 65.6282 230.557 63.9027 231.219 62.3779C231.86 60.9086 233.365 60.1593 235.689 60.0711C237.471 59.9561 239.258 59.9561 241.039 60.0711C242.529 60.2033 243.9 60.3503 245.182 60.4972L249.116 60.9233C250.602 61.0621 252.096 61.0965 253.587 61.0261C259.307 60.7684 264.807 58.7777 269.338 55.3254C271.312 53.7889 272.975 51.8998 274.241 49.7568C275.469 47.7327 276.147 45.4299 276.208 43.0716C276.232 41.1794 276.031 39.2908 275.612 37.4443C275.185 35.3713 274.333 33.4062 273.108 31.67C271.748 29.8046 269.927 28.3126 267.818 27.3357C265.075 26.1235 262.065 25.618 259.071 25.8664C258.003 25.9057 256.939 25.9989 255.881 26.1455C254.804 26.2834 253.735 26.4746 252.678 26.7186C249.429 27.3519 246.22 28.1663 243.066 29.1576C239.906 30.1519 236.692 30.9711 233.439 31.6112L229.267 32.3606C227.894 32.6138 226.504 32.7661 225.109 32.8161C223.175 32.9474 221.235 32.6512 219.431 31.9492C217.935 31.3449 216.562 30.4788 215.378 29.3926C214.383 28.4457 213.584 27.3182 213.023 26.0721C212.504 25.0041 212.239 23.8331 212.248 22.6487C212.348 19.7101 213.923 17.0067 216.972 14.5383C220.467 11.8126 224.374 9.64591 228.551 8.11753C233.666 6.18085 238.948 4.70553 244.332 3.70971C250.079 2.60251 255.903 1.92472 261.753 1.68211ZM239.132 22.5752C240.681 22.5505 242.224 22.789 243.692 23.2805C245.368 23.8074 246.962 24.5589 248.431 25.5138C249.91 26.4635 251.267 27.5886 252.469 28.8637C253.573 30.0202 254.358 31.4367 254.749 32.9777C254.841 34.2522 254.595 35.5284 254.034 36.6802C253.408 38.2671 252.767 39.8686 252.126 41.4554C249.902 46.2112 247.967 51.0929 246.329 56.0747C244.566 61.3849 243.074 66.7791 241.859 72.2367C240.652 77.7759 239.668 83.3004 238.953 88.8101C238.238 94.3199 237.79 99.4771 237.641 104.282C237.761 106.53 237.88 108.557 237.969 110.364C238.083 111.917 237.958 113.477 237.597 114.993C237.3 116.208 236.577 117.28 235.555 118.019C234.088 118.863 232.41 119.286 230.712 119.239C225.427 119.445 221.542 117.691 219.059 113.979C217.584 111.003 216.578 107.822 216.078 104.546C215.38 100.486 214.996 96.3801 214.931 92.2629C214.841 87.8551 214.931 83.2857 215.259 78.5252C215.587 73.7648 216.063 69.0925 216.749 64.5083C217.434 59.9242 218.15 55.6927 218.984 51.6522C219.687 48.116 220.598 44.623 221.711 41.1909C222.799 38.1054 223.887 35.4167 224.945 33.1246C225.87 31.0579 227.084 29.1292 228.551 27.3944C229.781 25.941 231.303 24.7552 233.022 23.9122C234.943 23.0582 237.024 22.6078 239.132 22.5899V22.5752Z" fill="#181818"/>
<path d="M363.285 91.1306C359.758 96.4782 355.164 101.062 349.784 104.604C347.084 106.378 344.196 107.856 341.17 109.012C335.553 111.26 329.328 111.566 323.512 109.879C320.706 109.105 318.051 107.874 315.658 106.235C313.338 104.67 311.319 102.71 309.697 100.446C308.134 98.2284 307.114 95.6834 306.717 93.0113C305.945 87.8475 306.368 82.5784 307.954 77.5986C309.512 72.3977 311.934 67.4874 315.122 63.0675C318.186 58.7685 322.013 55.0504 326.417 52.092C330.432 49.2904 335.171 47.6701 340.082 47.4197C341.584 47.3675 343.086 47.5008 344.553 47.8164C345.95 48.0959 347.277 48.6452 348.457 49.4326C349.867 49.0764 351.31 48.8696 352.764 48.8155C356.451 48.4577 360.129 49.5746 362.972 51.9157C365.493 54.15 367.348 57.0202 368.337 60.2171C369.393 63.5756 369.822 67.0952 369.603 70.6049C369.489 73.8528 368.814 77.0578 367.606 80.0817C368.33 80.8599 369.352 81.3024 370.423 81.3012C372.318 81.1319 374.082 80.2729 375.37 78.8916C376.98 77.4223 378.44 75.953 379.752 74.4838C380.268 73.8605 380.826 73.2716 381.421 72.7206C381.769 72.3338 382.243 72.0792 382.762 72.0007C384.076 72.0339 385.347 72.4704 386.398 73.2496C387.199 73.9339 387.727 74.8764 387.888 75.909C388.13 77.822 387.765 79.7619 386.845 81.4628C385.833 83.4726 384.505 85.3123 382.911 86.9138C381.239 88.6027 379.308 90.0208 377.188 91.1159C375.177 92.1914 372.947 92.8089 370.661 92.9232C368.083 92.9965 365.533 92.3768 363.285 91.1306ZM336.953 94.9948C338.817 94.831 340.556 94 341.841 92.6587C343.305 91.1338 344.454 89.3422 345.224 87.384C346.146 85.0873 346.787 82.6901 347.131 80.2433C347.52 77.6901 347.59 75.0996 347.34 72.5296C345.945 71.0405 344.883 69.2783 344.225 67.3578C343.438 65.4375 342.849 63.4439 342.467 61.4072V61.2603C342.467 61.1721 342.467 61.1134 342.541 61.1134C342.616 61.1134 342.541 61.0105 342.541 60.8195C340.645 62.2579 338.92 63.9043 337.4 65.7269C335.776 67.6672 334.363 69.77 333.183 72.0007C332.029 74.1775 331.139 76.4804 330.53 78.8622C329.942 81.047 329.82 83.3285 330.173 85.5621C330.352 86.4437 330.59 87.4428 330.858 88.5006C331.123 89.5755 331.502 90.6197 331.991 91.6155C332.442 92.5456 333.087 93.3716 333.883 94.0398C334.741 94.7416 335.843 95.0844 336.953 94.9948Z" fill="#181818"/>
<path d="M405.984 67.9485C405.789 67.173 405.901 66.3535 406.297 65.6564C406.876 64.721 407.641 63.9113 408.547 63.2762L414.836 58.0309C414.117 57.2472 413.09 56.8079 412.019 56.8261C410.016 56.9063 408.077 57.5485 406.431 58.6773C404.621 59.908 403.151 61.5645 402.154 63.4966C400.97 65.7984 400.193 68.283 399.859 70.8429C399.437 74.0769 399.503 77.3544 400.053 80.5695C400.712 83.7018 402.175 86.6154 404.3 89.0326C406.453 91.0601 409.359 92.1231 412.332 91.9711C415.165 91.8247 417.949 91.1881 420.558 90.0905C426.4 87.6969 431.639 84.071 435.907 79.4676C438.116 77.139 440.051 74.571 441.674 71.8127C442.008 70.8497 442.895 70.1779 443.924 70.1083C445.202 70.1527 446.396 70.7491 447.188 71.7392C448.065 72.5473 448.725 73.5568 449.11 74.6777C449.285 76.1503 449.021 77.6412 448.35 78.968C446.874 82.1683 444.931 85.1383 442.583 87.7837C436.513 94.8253 428.962 100.481 420.454 104.357C416.233 106.366 411.648 107.52 406.967 107.751C397.579 108.133 390.491 106.434 385.702 102.653C380.914 98.8718 377.879 92.8478 376.597 84.5807C375.775 79.7644 376.096 74.8256 377.536 70.1524C378.965 65.4289 381.375 61.0506 384.614 57.2962C387.936 53.4372 391.985 50.2489 396.536 47.9075C401.397 45.4313 406.759 44.0607 412.228 43.8964C413.018 43.8964 414.031 43.8964 415.208 43.8964C416.385 43.8964 417.801 43.9699 419.276 44.1021C420.79 44.2441 422.286 44.5245 423.747 44.9396C425.25 45.3645 426.693 45.9767 428.039 46.7615C429.369 47.5229 430.546 48.519 431.511 49.7001C432.558 51.073 433.309 52.6432 433.716 54.3136C434.21 57.0889 434.21 59.9278 433.716 62.7032C433.293 65.0448 432.45 67.2935 431.228 69.3443C430.171 71.0988 428.736 72.6034 427.025 73.7521C425.562 74.7873 423.831 75.3935 422.033 75.5005C420.486 75.5378 418.94 75.4295 417.414 75.1773C415.662 74.9089 413.944 74.4608 412.287 73.8403C410.756 73.2786 409.331 72.4692 408.07 71.4453C406.992 70.5471 406.256 69.3139 405.984 67.9485Z" fill="#181818"/>
<path d="M487.431 105.082C484.167 105.328 480.893 104.725 477.939 103.334C475.425 102.037 473.248 100.186 471.576 97.9268C469.761 95.4781 468.26 92.8182 467.105 90.0074C465.873 87.0688 464.656 83.9834 463.454 80.7509C463.265 82.6218 463.042 84.4437 462.784 86.2167C462.53 87.9945 462.247 89.8164 461.949 91.6824C461.74 92.8725 461.576 94.3271 461.427 96.0902C461.263 97.8169 460.857 99.5129 460.22 101.13C459.559 102.767 458.542 104.242 457.24 105.449C455.701 106.757 453.728 107.463 451.696 107.434C450.057 107.457 448.446 107.008 447.062 106.14C445.416 105.211 443.911 104.059 442.591 102.717C441.273 101.389 440.122 99.9087 439.164 98.3088C438.323 96.957 437.747 95.4619 437.465 93.901C436.858 90.9929 436.858 87.9934 437.465 85.0853C438.076 82.2643 438.598 79.2082 438.955 75.8289C439.373 73.5662 439.909 70.1379 440.565 65.5439C441.235 61.0186 442.055 56.0377 443.009 50.6014C443.962 45.1651 445.125 39.5965 446.481 33.8517C447.711 28.5066 449.334 23.2572 451.339 18.1451C452.912 13.9474 455.079 9.9902 457.776 6.39088C459.662 3.60826 462.738 1.83203 466.122 1.57166C468.197 1.52423 470.266 1.81209 472.246 2.42384C474.388 3.04782 476.444 3.92603 478.371 5.03915C480.184 6.10101 481.826 7.42317 483.244 8.96211C484.545 10.325 485.419 12.0289 485.762 13.8695C485.958 14.748 485.906 15.6625 485.613 16.5142C485.166 17.6622 484.463 18.6965 483.557 19.5409C481.7 21.5081 480.135 23.7241 478.907 26.1233C477.141 29.3938 475.583 32.7699 474.243 36.2319C472.753 40.0226 471.382 43.9897 470.1 48.1624C468.884 52.062 467.889 56.0254 467.12 60.0341C469.169 59.4042 470.914 58.0556 472.023 56.2434C473.215 54.3823 474.452 52.4723 475.733 50.5132C477.053 48.5177 478.654 46.717 480.487 45.1651C482.73 43.4466 485.5 42.5343 488.34 42.5792C490.967 42.4302 493.597 42.8256 496.06 43.7399C497.922 44.4771 499.56 45.6766 500.813 47.2221C501.808 48.4356 502.479 49.8751 502.765 51.4095C503.652 55.7325 502.338 60.2096 499.249 63.3988C496.089 66.8075 490.442 70.1917 482.305 73.5515C483.199 75.1824 484.153 76.7839 485.136 78.356C486.08 79.8779 487.104 81.3493 488.206 82.7639C489.12 83.9717 490.204 85.0452 491.425 85.9522C492.357 86.6823 493.513 87.0763 494.704 87.0688C495.508 87.0688 496.402 87.0101 497.386 86.8925C498.641 86.7137 499.825 86.2063 500.813 85.4232C502.691 84.0787 504.433 82.5583 506.014 80.8832C507.504 79.3111 508.786 77.9446 509.874 76.6223L512.616 73.4193C513.072 72.7302 513.793 72.2531 514.612 72.0969C515.909 72.0874 517.197 72.3115 518.413 72.7581C519.718 73.0523 520.629 74.2157 520.588 75.535C520.378 78.5767 519.349 81.5082 517.608 84.0274C515.424 87.5441 512.784 90.7645 509.754 93.6071C506.51 96.6899 502.879 99.3513 498.951 101.527C495.448 103.589 491.501 104.807 487.431 105.082Z" fill="#181818"/>
<path d="M577.574 66.8725C577.826 66.6337 578.125 66.4487 578.453 66.3288C578.784 66.1843 579.136 66.0949 579.496 66.0644C581.212 65.8133 582.949 66.3553 584.205 67.5336C585.196 68.7387 585.575 70.3241 585.234 71.8386C584.511 75.5078 582.985 78.9775 580.763 82.006C578.158 85.7044 574.98 88.9767 571.345 91.7032C567.315 94.7498 562.87 97.2228 558.142 99.0496C553.148 101.011 547.851 102.114 542.48 102.311C538.802 102.478 535.119 102.096 531.557 101.18C528.317 100.355 525.247 98.9827 522.481 97.1248C519.843 95.3263 517.552 93.0772 515.716 90.4837C513.854 87.8256 512.547 84.8289 511.871 81.6681C510.76 77.2664 510.408 72.7118 510.828 68.1948C511.204 63.8222 512.471 59.5695 514.554 55.6913C517.345 50.6364 521.536 46.4682 526.639 43.6726C532.153 40.4696 539.306 38.6967 548.098 38.3538C554.416 38.109 559.12 39.1472 562.21 41.4687C565.365 43.8644 567.493 47.341 568.171 51.21C568.812 54.3691 568.416 57.6476 567.038 60.5693C565.554 63.7226 563.405 66.5276 560.735 68.7972C557.71 71.393 554.29 73.5051 550.602 75.0563C546.479 76.8213 542.133 78.0273 537.682 78.6414C538.454 80.8496 539.807 82.8165 541.601 84.3421C543.572 85.8353 546 86.6229 548.485 86.5754C554.433 86.2573 560.127 84.0979 564.758 80.4045C569.693 76.5518 574.013 71.9902 577.574 66.8725ZM536.221 68.0185C538.202 67.8736 540.127 67.2965 541.854 66.3288C543.465 65.4463 544.891 64.2695 546.056 62.8613C547.149 61.552 547.992 60.0587 548.545 58.4535C549.05 57.1071 549.213 55.6596 549.022 54.2367C548.847 53.4564 548.562 52.7044 548.172 52.0034C547.75 51.3292 546.951 50.9793 546.161 51.1218C544.848 51.2202 543.604 51.7358 542.614 52.5911C541.34 53.6278 540.248 54.8637 539.38 56.2496C538.339 57.892 537.555 59.6803 537.056 61.5537C536.462 63.6576 536.181 65.8351 536.221 68.0185Z" fill="#181818"/>
<path d="M625.54 34.784C625.755 36.1444 625.633 37.5359 625.182 38.8392C624.721 40.2752 624.048 41.6365 623.185 42.8797C622.362 44.1117 621.358 45.216 620.205 46.1562C619.205 47.0079 617.98 47.5631 616.673 47.7577C615.228 48.0123 613.753 48.0667 612.292 47.9193C610.802 47.7871 609.043 47.5961 607.166 47.3757C606.144 50.4248 605.283 53.5243 604.588 56.6615C603.902 59.7764 603.336 62.7394 602.889 65.5507C602.442 68.3717 602.114 70.9723 601.905 73.3819C601.697 75.7915 601.607 77.7897 601.637 79.3618C601.637 81.4188 602.248 82.7118 603.351 83.2701C604.563 83.8379 605.902 84.0908 607.24 84.0048C609.184 83.7644 611.054 83.1182 612.724 82.1094C615.357 80.6073 617.735 78.7086 619.773 76.4821C620.502 75.8192 621.185 75.1073 621.814 74.3516C622.589 73.4407 623.394 72.5297 624.214 71.6041C625.033 70.6784 625.823 69.9144 626.553 69.2385C626.994 68.7359 627.582 68.3815 628.237 68.2247C629.303 68.3415 630.326 68.7094 631.218 69.2973C632.279 69.937 632.987 71.0188 633.14 72.2359C633.706 75.1744 632.757 78.2746 630.294 81.5364C627.573 85.0686 624.316 88.166 620.637 90.7194C616.609 93.5967 612.24 95.9798 607.628 97.8159C603.534 99.567 599.162 100.601 594.708 100.872C591.561 100.909 588.477 99.9962 585.871 98.2567C582.933 96.4625 580.535 93.926 578.927 90.9104C578.396 89.8397 577.953 88.7294 577.6 87.5898C577.219 86.356 577.024 85.074 577.019 83.7844C576.9 82.1241 576.87 79.9642 576.93 77.3195C576.989 74.6749 577.123 71.6922 577.332 68.401C577.541 65.1099 577.854 61.5983 578.301 57.8516C578.748 54.105 579.329 50.2996 580.074 46.4501C577.948 45.9488 575.93 45.0781 574.113 43.8788C572.534 42.89 571.451 41.2891 571.133 39.471C570.797 38.0899 570.797 36.65 571.133 35.2689C571.434 34.26 572.103 33.3965 573.011 32.8446C574.15 32.201 575.405 31.7818 576.706 31.6104C578.196 31.3459 580 31.0961 581.982 30.817C582.282 30.8045 582.581 30.7701 582.876 30.7141C583.22 30.6473 583.568 30.608 583.919 30.5966C584.827 27.3279 585.942 24.1186 587.257 20.9875C588.425 18.1854 589.851 15.4951 591.519 12.9506C592.866 10.852 594.57 8.99807 596.556 7.47017C598.22 6.17874 600.252 5.4337 602.367 5.33972C605.155 5.24621 607.931 5.74739 610.504 6.80899C613.127 7.75836 615.556 9.16697 617.672 10.967C619.584 12.4419 620.929 14.5147 621.487 16.8442C621.721 17.7508 621.637 18.7088 621.248 19.5623C620.806 20.4157 620.25 21.2064 619.594 21.9132L617.076 24.8517C615.947 26.206 614.982 27.6852 614.2 29.2595L621.293 28.9951C622.678 28.9483 623.914 29.8495 624.273 31.1696C624.801 32.3359 625.225 33.5453 625.54 34.784Z" fill="#181818"/>
<path d="M656.497 78.1701C655.881 76.0406 654.604 74.1548 652.846 72.7778C650.745 70.8678 648.465 68.8842 646.036 66.9007C643.607 64.9172 641.327 62.7867 639.225 60.7004C637.348 58.9854 636.026 56.7619 635.425 54.309C634.889 51.8297 635.054 49.253 635.902 46.8598C636.784 44.4755 638.26 42.3482 640.194 40.6742C642.382 38.8093 644.911 37.3731 647.645 36.4426C650.872 35.3501 654.249 34.7505 657.659 34.6648C663.116 34.277 668.584 35.2312 673.574 37.4418C677.44 39.0424 680.26 42.4159 681.115 46.4631C681.451 47.7398 681.451 49.08 681.115 50.3567C680.793 51.5106 680.241 52.5895 679.49 53.5303C678.786 54.4289 677.911 55.1827 676.912 55.7489C676.003 56.2701 674.982 56.5722 673.932 56.6305C671.906 56.7799 669.892 56.2235 668.239 55.0584C666.795 53.9872 665.511 52.721 664.425 51.297C663.381 49.9159 662.472 48.6523 661.683 47.4916C660.893 46.3309 660.103 45.7578 659.388 45.7578C657.197 45.7578 656.214 46.5366 656.407 47.8442C657.21 50.4937 658.817 52.8371 661.012 54.5588C663.645 56.9684 666.496 59.4172 669.566 61.9052C672.65 64.3589 675.526 66.7538 678.075 69.1193C680.217 70.7939 681.805 73.06 682.635 75.6282C683.2 78.4231 682.989 81.3166 682.024 84.0031C680.96 86.9047 679.147 89.4824 676.763 91.4817C673.881 93.9051 670.566 95.7785 666.988 97.0062C662.42 98.5622 657.633 99.4002 652.801 99.4892C649.953 99.5978 647.101 99.4106 644.292 98.9309C638.461 98.2477 632.946 95.9445 628.392 92.2898C624.714 89.429 622.125 85.4265 621.045 80.9323C620.631 78.9945 620.631 76.9929 621.045 75.0552C621.466 72.9926 622.302 71.0341 623.504 69.2956C624.721 67.5249 626.3 66.0237 628.138 64.8878C630.12 63.7094 632.381 63.0658 634.695 63.0218C636.448 63.0549 638.18 63.4034 639.807 64.0503C641.867 64.7684 643.765 65.8764 645.395 67.3121C646.179 68.0491 646.892 68.8557 647.526 69.7217C648.157 70.5708 648.599 71.5423 648.822 72.5721C649.199 73.8357 648.968 75.1999 648.196 76.2747C647.479 77.1292 646.617 77.8549 645.648 78.4198C644.709 78.9781 643.815 79.5365 642.966 80.0801C642.166 80.5206 641.773 81.4414 642.012 82.3134C642.323 83.4513 643.172 84.3709 644.292 84.7818C646.445 85.5114 648.734 85.7672 650.998 85.5311C652.867 85.6607 654.669 84.8197 655.752 83.3125C656.7 81.7698 656.969 79.9127 656.497 78.1701Z" fill="#181818"/>
<path d="M14.3958 147.164L14.9472 147.311L15.8711 147.561L16.1692 147.634C20.7186 148.688 25.3701 149.255 30.0429 149.324C35.8969 149.115 41.714 148.317 47.4037 146.944C53.141 145.562 58.5206 142.536 63.4382 139.685C68.351 136.822 72.661 133.057 76.1347 128.592C79.8541 123.671 82.4562 118.019 83.7645 112.019C84.4053 108.992 84.9417 106.024 85.4186 103.086C90.3946 101.42 94.9627 98.7473 98.8304 95.2397C107.906 85.807 102.705 85.1311 102.705 83.9116C102.705 82.6921 97.2061 80.5176 95.9096 83.0301C95.3284 84.1467 92.0649 85.9686 87.6688 87.7905C88.0712 84.9401 88.4884 82.0603 88.9504 79.1071C89.5465 75.3751 90.2965 71.4571 91.2006 67.3529C92.6014 61.2407 94.2853 55.2901 96.2076 49.4865C98.0225 43.9847 100.152 38.5888 102.586 33.3245C103.465 31.5319 104.195 29.6954 104.94 27.8735C106.088 25.0524 106.088 25.0524 105.745 23.6566C105.276 21.2769 104.037 19.1114 102.213 17.4857C100.348 15.6803 98.1667 14.2219 95.7755 13.1807C89.6536 10.1989 82.2563 11.7488 77.8931 16.9274C74.4134 21.2902 71.8317 26.2812 70.2931 31.6201C67.8132 39.5386 65.9305 47.6269 64.6602 55.8191C63.021 65.5163 61.1979 76.7807 59.1911 89.6124C58.8633 91.64 58.4908 93.6235 58.1033 95.6071H58.0288C51.9935 96.8559 47.8955 97.5612 40.1464 99.53C30.4005 102.013 12.7417 108.595 5.97622 116.265C-0.446523 123.611 -2.59241 135.909 4.78407 141.86C6.67915 143.525 8.82599 144.888 11.1472 145.9L14.3958 147.164ZM42.5308 129.871C39.3964 132.405 35.4819 133.814 31.4288 133.867C29.3749 133.953 27.3175 133.83 25.2892 133.5C21.7723 132.618 20.0288 131.34 20.2225 128.21C20.4907 123.802 28.5974 119.395 35.1245 117.308C41.2176 115.139 47.4443 113.352 53.7668 111.96C52.8221 114.71 51.6818 117.391 50.3543 119.982C48.4704 123.79 45.8066 127.172 42.5308 129.915V129.871Z" fill="#181818"/>
<path d="M104.107 159.916C100.993 158.668 101.797 156.978 111.156 154.142C118.488 151.909 156.771 138.935 223.889 131.941C258.044 128.4 280.845 127.019 306.819 125.462C355.831 122.523 423.441 122.7 469.25 124.154C541.42 126.373 611.787 129.87 614.425 130.325C617.063 130.781 618.404 131.324 614.574 133.631C611.176 135.732 572.938 147.295 569.958 148.324C565.651 149.793 565.74 149.969 548.32 147.971C471.504 139.165 394.208 135.082 316.877 135.747C234.216 136.672 187.901 141.168 148.873 150.704C112.899 159.52 116.088 159.343 111.782 160.724C107.475 162.106 107.43 162.12 104.971 160.724C103.571 159.769 104.107 159.916 104.107 159.916Z" fill="#181818"/>
</g>
<defs>
<clipPath id="clip0_7220_15466">
<rect width="684" height="161.62" fill="white" transform="translate(0 0.18988)"/>
</clipPath>
</defs>
</svg>
